<svg width="283" height="152" viewBox="0 0 283 152" fill="none" xmlns="http://www.w3.org/2000/svg">
<rect x="1" y="0.5" width="281" height="151" fill="white"/>
<path d="M157.5 60.4444V35.5556C157.5 33.6 155.9 32 153.944 32H129.056C127.1 32 125.5 33.6 125.5 35.5556V60.4444C125.5 62.4 127.1 64 129.056 64H153.944C155.9 64 157.5 62.4 157.5 60.4444ZM135.278 50.6667L139.722 56.0178L145.944 48L153.944 58.6667H129.056L135.278 50.6667Z" fill="#C8C8C8"/>
<path d="M59.0574 85.06H59.8834L64.0134 95H62.9774L61.6894 91.892H57.2234L55.9494 95H54.8994L59.0574 85.06ZM61.4654 91.122L59.4634 86.208L57.4334 91.122H61.4654ZM68.8824 88.546C68.2477 88.5647 67.6877 88.742 67.2024 89.078C66.7264 89.414 66.3904 89.876 66.1944 90.464V95H65.2424V87.706H66.1384V89.456C66.3904 88.9427 66.7217 88.5273 67.1324 88.21C67.5524 87.8927 67.9957 87.7153 68.4624 87.678C68.5557 87.6687 68.635 87.664 68.7004 87.664C68.775 87.664 68.8357 87.6687 68.8824 87.678V88.546ZM73.7906 88.546C73.1559 88.5647 72.5959 88.742 72.1106 89.078C71.6346 89.414 71.2986 89.876 71.1026 90.464V95H70.1506V87.706H71.0466V89.456C71.2986 88.9427 71.6299 88.5273 72.0406 88.21C72.4606 87.8927 72.9039 87.7153 73.3706 87.678C73.4639 87.6687 73.5433 87.664 73.6086 87.664C73.6833 87.664 73.7439 87.6687 73.7906 87.678V88.546ZM74.4434 92.9C74.4434 92.4427 74.5741 92.0507 74.8354 91.724C75.0968 91.388 75.4561 91.1313 75.9134 90.954C76.3801 90.7673 76.9168 90.674 77.5234 90.674C77.8781 90.674 78.2468 90.702 78.6294 90.758C79.0121 90.814 79.3528 90.898 79.6514 91.01V90.394C79.6514 89.778 79.4694 89.288 79.1054 88.924C78.7414 88.56 78.2374 88.378 77.5934 88.378C77.2014 88.378 76.8141 88.4527 76.4314 88.602C76.0581 88.742 75.6661 88.952 75.2554 89.232L74.8914 88.56C75.3674 88.2333 75.8341 87.9907 76.2914 87.832C76.7488 87.664 77.2154 87.58 77.6914 87.58C78.5874 87.58 79.2968 87.8367 79.8194 88.35C80.3421 88.8633 80.6034 89.5727 80.6034 90.478V93.852C80.6034 93.9827 80.6314 94.0807 80.6874 94.146C80.7434 94.202 80.8321 94.2347 80.9534 94.244V95C80.8508 95.0093 80.7621 95.0187 80.6874 95.028C80.6128 95.0373 80.5568 95.0373 80.5194 95.028C80.2861 95.0187 80.1088 94.944 79.9874 94.804C79.8661 94.664 79.8008 94.5147 79.7914 94.356L79.7774 93.824C79.4508 94.244 79.0261 94.5707 78.5034 94.804C77.9808 95.028 77.4488 95.14 76.9074 95.14C76.4408 95.14 76.0161 95.042 75.6334 94.846C75.2601 94.6407 74.9661 94.37 74.7514 94.034C74.5461 93.6887 74.4434 93.3107 74.4434 92.9ZM79.3294 93.46C79.4321 93.3293 79.5114 93.2033 79.5674 93.082C79.6234 92.9607 79.6514 92.8533 79.6514 92.76V91.696C79.3341 91.5747 79.0028 91.4813 78.6574 91.416C78.3214 91.3507 77.9808 91.318 77.6354 91.318C76.9541 91.318 76.4034 91.4533 75.9834 91.724C75.5634 91.9947 75.3534 92.3633 75.3534 92.83C75.3534 93.1007 75.4234 93.3573 75.5634 93.6C75.7034 93.8333 75.9088 94.0293 76.1794 94.188C76.4501 94.3373 76.7674 94.412 77.1314 94.412C77.5888 94.412 78.0134 94.3233 78.4054 94.146C78.8068 93.9687 79.1148 93.74 79.3294 93.46ZM85.0544 95.14C84.457 95.14 83.9017 95.042 83.3884 94.846C82.875 94.65 82.4317 94.3513 82.0584 93.95L82.4504 93.278C82.861 93.6607 83.2717 93.9407 83.6824 94.118C84.1024 94.286 84.5457 94.37 85.0124 94.37C85.5817 94.37 86.0437 94.258 86.3984 94.034C86.753 93.8007 86.9304 93.4693 86.9304 93.04C86.9304 92.7507 86.8417 92.5313 86.6644 92.382C86.4964 92.2233 86.249 92.0973 85.9224 92.004C85.605 91.9013 85.2224 91.794 84.7744 91.682C84.2704 91.542 83.8457 91.3973 83.5004 91.248C83.1644 91.0893 82.9077 90.8933 82.7304 90.66C82.5624 90.4173 82.4784 90.1047 82.4784 89.722C82.4784 89.246 82.595 88.854 82.8284 88.546C83.071 88.2287 83.3977 87.9907 83.8084 87.832C84.2284 87.664 84.695 87.58 85.2084 87.58C85.7684 87.58 86.263 87.6687 86.6924 87.846C87.1217 88.0233 87.4717 88.2707 87.7424 88.588L87.2804 89.232C87.019 88.9333 86.7064 88.714 86.3424 88.574C85.9877 88.4247 85.591 88.35 85.1524 88.35C84.8537 88.35 84.569 88.392 84.2984 88.476C84.0277 88.5507 83.8037 88.6813 83.6264 88.868C83.4584 89.0453 83.3744 89.2927 83.3744 89.61C83.3744 89.8713 83.4397 90.0767 83.5704 90.226C83.701 90.366 83.897 90.4873 84.1584 90.59C84.4197 90.6833 84.7417 90.786 85.1244 90.898C85.675 91.0473 86.1557 91.2013 86.5664 91.36C86.977 91.5093 87.2944 91.7053 87.5184 91.948C87.7424 92.1907 87.8544 92.5313 87.8544 92.97C87.8544 93.6513 87.5977 94.1833 87.0844 94.566C86.571 94.9487 85.8944 95.14 85.0544 95.14ZM92.9279 94.65C92.8533 94.678 92.7366 94.7293 92.5779 94.804C92.4193 94.8787 92.2279 94.944 92.0039 95C91.7799 95.056 91.5373 95.084 91.2759 95.084C91.0053 95.084 90.7486 95.0327 90.5059 94.93C90.2726 94.8273 90.0859 94.6733 89.9459 94.468C89.8059 94.2533 89.7359 93.992 89.7359 93.684V88.462H88.7279V87.706H89.7359V85.242H90.6879V87.706H92.3679V88.462H90.6879V93.418C90.7066 93.6793 90.7999 93.8753 90.9679 94.006C91.1453 94.1367 91.3459 94.202 91.5699 94.202C91.8313 94.202 92.0693 94.16 92.2839 94.076C92.4986 93.9827 92.6293 93.9173 92.6759 93.88L92.9279 94.65ZM97.1443 95.14C96.6217 95.14 96.1363 95.042 95.6883 94.846C95.2403 94.6407 94.853 94.3653 94.5263 94.02C94.1997 93.6653 93.943 93.2593 93.7563 92.802C93.579 92.3447 93.4903 91.8547 93.4903 91.332C93.4903 90.6507 93.6443 90.0253 93.9523 89.456C94.2697 88.8867 94.7037 88.434 95.2543 88.098C95.805 87.7527 96.4303 87.58 97.1303 87.58C97.849 87.58 98.4743 87.7527 99.0063 88.098C99.5477 88.4433 99.9723 88.9007 100.28 89.47C100.588 90.03 100.742 90.646 100.742 91.318C100.742 91.3927 100.742 91.4673 100.742 91.542C100.742 91.6073 100.738 91.6587 100.728 91.696H94.4843C94.531 92.2187 94.6757 92.6853 94.9183 93.096C95.1703 93.4973 95.4923 93.8193 95.8843 94.062C96.2857 94.2953 96.7197 94.412 97.1863 94.412C97.6623 94.412 98.1103 94.2907 98.5303 94.048C98.9597 93.8053 99.2583 93.488 99.4263 93.096L100.252 93.32C100.103 93.6653 99.8743 93.978 99.5663 94.258C99.2583 94.538 98.8943 94.7573 98.4743 94.916C98.0637 95.0653 97.6203 95.14 97.1443 95.14ZM94.4563 91.01H99.8463C99.809 90.478 99.6643 90.0113 99.4123 89.61C99.1697 89.2087 98.8477 88.896 98.4463 88.672C98.0543 88.4387 97.6203 88.322 97.1443 88.322C96.6683 88.322 96.2343 88.4387 95.8423 88.672C95.4503 88.896 95.1283 89.2133 94.8763 89.624C94.6337 90.0253 94.4937 90.4873 94.4563 91.01ZM109.503 95.14C108.897 95.14 108.351 94.9813 107.865 94.664C107.389 94.3467 107.011 93.9547 106.731 93.488V97.982H105.779V87.706H106.633V89.12C106.923 88.6627 107.31 88.294 107.795 88.014C108.281 87.7247 108.799 87.58 109.349 87.58C109.853 87.58 110.315 87.6873 110.735 87.902C111.155 88.1073 111.519 88.3873 111.827 88.742C112.135 89.0967 112.373 89.5027 112.541 89.96C112.719 90.408 112.807 90.8747 112.807 91.36C112.807 92.0413 112.667 92.6713 112.387 93.25C112.117 93.8193 111.734 94.2767 111.239 94.622C110.745 94.9673 110.166 95.14 109.503 95.14ZM109.237 94.3C109.639 94.3 109.998 94.2207 110.315 94.062C110.633 93.894 110.903 93.67 111.127 93.39C111.361 93.11 111.538 92.7973 111.659 92.452C111.781 92.0973 111.841 91.7333 111.841 91.36C111.841 90.968 111.771 90.5947 111.631 90.24C111.501 89.8853 111.309 89.5727 111.057 89.302C110.805 89.0313 110.516 88.8167 110.189 88.658C109.863 88.4993 109.508 88.42 109.125 88.42C108.883 88.42 108.631 88.4667 108.369 88.56C108.108 88.6533 107.856 88.7887 107.613 88.966C107.38 89.134 107.184 89.3253 107.025 89.54C106.867 89.7547 106.769 89.9833 106.731 90.226V92.466C106.881 92.8113 107.081 93.124 107.333 93.404C107.585 93.6747 107.875 93.894 108.201 94.062C108.537 94.2207 108.883 94.3 109.237 94.3ZM113.832 92.9C113.832 92.4427 113.963 92.0507 114.224 91.724C114.485 91.388 114.845 91.1313 115.302 90.954C115.769 90.7673 116.305 90.674 116.912 90.674C117.267 90.674 117.635 90.702 118.018 90.758C118.401 90.814 118.741 90.898 119.04 91.01V90.394C119.04 89.778 118.858 89.288 118.494 88.924C118.13 88.56 117.626 88.378 116.982 88.378C116.59 88.378 116.203 88.4527 115.82 88.602C115.447 88.742 115.055 88.952 114.644 89.232L114.28 88.56C114.756 88.2333 115.223 87.9907 115.68 87.832C116.137 87.664 116.604 87.58 117.08 87.58C117.976 87.58 118.685 87.8367 119.208 88.35C119.731 88.8633 119.992 89.5727 119.992 90.478V93.852C119.992 93.9827 120.02 94.0807 120.076 94.146C120.132 94.202 120.221 94.2347 120.342 94.244V95C120.239 95.0093 120.151 95.0187 120.076 95.028C120.001 95.0373 119.945 95.0373 119.908 95.028C119.675 95.0187 119.497 94.944 119.376 94.804C119.255 94.664 119.189 94.5147 119.18 94.356L119.166 93.824C118.839 94.244 118.415 94.5707 117.892 94.804C117.369 95.028 116.837 95.14 116.296 95.14C115.829 95.14 115.405 95.042 115.022 94.846C114.649 94.6407 114.355 94.37 114.14 94.034C113.935 93.6887 113.832 93.3107 113.832 92.9ZM118.718 93.46C118.821 93.3293 118.9 93.2033 118.956 93.082C119.012 92.9607 119.04 92.8533 119.04 92.76V91.696C118.723 91.5747 118.391 91.4813 118.046 91.416C117.71 91.3507 117.369 91.318 117.024 91.318C116.343 91.318 115.792 91.4533 115.372 91.724C114.952 91.9947 114.742 92.3633 114.742 92.83C114.742 93.1007 114.812 93.3573 114.952 93.6C115.092 93.8333 115.297 94.0293 115.568 94.188C115.839 94.3373 116.156 94.412 116.52 94.412C116.977 94.412 117.402 94.3233 117.794 94.146C118.195 93.9687 118.503 93.74 118.718 93.46ZM125.689 88.546C125.054 88.5647 124.494 88.742 124.009 89.078C123.533 89.414 123.197 89.876 123.001 90.464V95H122.049V87.706H122.945V89.456C123.197 88.9427 123.528 88.5273 123.939 88.21C124.359 87.8927 124.802 87.7153 125.269 87.678C125.362 87.6687 125.442 87.664 125.507 87.664C125.582 87.664 125.642 87.6687 125.689 87.678V88.546ZM126.342 92.9C126.342 92.4427 126.473 92.0507 126.734 91.724C126.995 91.388 127.355 91.1313 127.812 90.954C128.279 90.7673 128.815 90.674 129.422 90.674C129.777 90.674 130.145 90.702 130.528 90.758C130.911 90.814 131.251 90.898 131.55 91.01V90.394C131.55 89.778 131.368 89.288 131.004 88.924C130.64 88.56 130.136 88.378 129.492 88.378C129.1 88.378 128.713 88.4527 128.33 88.602C127.957 88.742 127.565 88.952 127.154 89.232L126.79 88.56C127.266 88.2333 127.733 87.9907 128.19 87.832C128.647 87.664 129.114 87.58 129.59 87.58C130.486 87.58 131.195 87.8367 131.718 88.35C132.241 88.8633 132.502 89.5727 132.502 90.478V93.852C132.502 93.9827 132.53 94.0807 132.586 94.146C132.642 94.202 132.731 94.2347 132.852 94.244V95C132.749 95.0093 132.661 95.0187 132.586 95.028C132.511 95.0373 132.455 95.0373 132.418 95.028C132.185 95.0187 132.007 94.944 131.886 94.804C131.765 94.664 131.699 94.5147 131.69 94.356L131.676 93.824C131.349 94.244 130.925 94.5707 130.402 94.804C129.879 95.028 129.347 95.14 128.806 95.14C128.339 95.14 127.915 95.042 127.532 94.846C127.159 94.6407 126.865 94.37 126.65 94.034C126.445 93.6887 126.342 93.3107 126.342 92.9ZM131.228 93.46C131.331 93.3293 131.41 93.2033 131.466 93.082C131.522 92.9607 131.55 92.8533 131.55 92.76V91.696C131.233 91.5747 130.901 91.4813 130.556 91.416C130.22 91.3507 129.879 91.318 129.534 91.318C128.853 91.318 128.302 91.4533 127.882 91.724C127.462 91.9947 127.252 92.3633 127.252 92.83C127.252 93.1007 127.322 93.3573 127.462 93.6C127.602 93.8333 127.807 94.0293 128.078 94.188C128.349 94.3373 128.666 94.412 129.03 94.412C129.487 94.412 129.912 94.3233 130.304 94.146C130.705 93.9687 131.013 93.74 131.228 93.46ZM137.539 92.9C137.539 92.4427 137.67 92.0507 137.931 91.724C138.192 91.388 138.552 91.1313 139.009 90.954C139.476 90.7673 140.012 90.674 140.619 90.674C140.974 90.674 141.342 90.702 141.725 90.758C142.108 90.814 142.448 90.898 142.747 91.01V90.394C142.747 89.778 142.565 89.288 142.201 88.924C141.837 88.56 141.333 88.378 140.689 88.378C140.297 88.378 139.91 88.4527 139.527 88.602C139.154 88.742 138.762 88.952 138.351 89.232L137.987 88.56C138.463 88.2333 138.93 87.9907 139.387 87.832C139.844 87.664 140.311 87.58 140.787 87.58C141.683 87.58 142.392 87.8367 142.915 88.35C143.438 88.8633 143.699 89.5727 143.699 90.478V93.852C143.699 93.9827 143.727 94.0807 143.783 94.146C143.839 94.202 143.928 94.2347 144.049 94.244V95C143.946 95.0093 143.858 95.0187 143.783 95.028C143.708 95.0373 143.652 95.0373 143.615 95.028C143.382 95.0187 143.204 94.944 143.083 94.804C142.962 94.664 142.896 94.5147 142.887 94.356L142.873 93.824C142.546 94.244 142.122 94.5707 141.599 94.804C141.076 95.028 140.544 95.14 140.003 95.14C139.536 95.14 139.112 95.042 138.729 94.846C138.356 94.6407 138.062 94.37 137.847 94.034C137.642 93.6887 137.539 93.3107 137.539 92.9ZM142.425 93.46C142.528 93.3293 142.607 93.2033 142.663 93.082C142.719 92.9607 142.747 92.8533 142.747 92.76V91.696C142.43 91.5747 142.098 91.4813 141.753 91.416C141.417 91.3507 141.076 91.318 140.731 91.318C140.05 91.318 139.499 91.4533 139.079 91.724C138.659 91.9947 138.449 92.3633 138.449 92.83C138.449 93.1007 138.519 93.3573 138.659 93.6C138.799 93.8333 139.004 94.0293 139.275 94.188C139.546 94.3373 139.863 94.412 140.227 94.412C140.684 94.412 141.109 94.3233 141.501 94.146C141.902 93.9687 142.21 93.74 142.425 93.46ZM145.266 91.374C145.266 90.6833 145.406 90.0533 145.686 89.484C145.975 88.9053 146.372 88.4433 146.876 88.098C147.38 87.7527 147.954 87.58 148.598 87.58C149.205 87.58 149.746 87.7433 150.222 88.07C150.707 88.3873 151.085 88.7747 151.356 89.232V84.78H152.308V93.852C152.308 93.9827 152.336 94.0807 152.392 94.146C152.448 94.202 152.532 94.2347 152.644 94.244V95C152.457 95.028 152.313 95.0373 152.21 95.028C152.014 95.0187 151.841 94.9393 151.692 94.79C151.543 94.6407 151.468 94.4773 151.468 94.3V93.586C151.179 94.062 150.787 94.44 150.292 94.72C149.797 95 149.284 95.14 148.752 95.14C148.248 95.14 147.781 95.0373 147.352 94.832C146.932 94.6267 146.563 94.3467 146.246 93.992C145.938 93.6373 145.695 93.236 145.518 92.788C145.35 92.3307 145.266 91.8593 145.266 91.374ZM151.356 92.494V90.24C151.235 89.904 151.039 89.6007 150.768 89.33C150.497 89.05 150.189 88.8307 149.844 88.672C149.508 88.504 149.172 88.42 148.836 88.42C148.444 88.42 148.089 88.504 147.772 88.672C147.455 88.8307 147.179 89.05 146.946 89.33C146.722 89.61 146.549 89.9273 146.428 90.282C146.307 90.6367 146.246 91.0007 146.246 91.374C146.246 91.766 146.311 92.1393 146.442 92.494C146.582 92.8487 146.778 93.166 147.03 93.446C147.282 93.7167 147.571 93.9267 147.898 94.076C148.225 94.2253 148.579 94.3 148.962 94.3C149.205 94.3 149.457 94.2533 149.718 94.16C149.979 94.0667 150.227 93.9407 150.46 93.782C150.703 93.614 150.903 93.418 151.062 93.194C151.221 92.97 151.319 92.7367 151.356 92.494ZM154.465 95V87.706H155.417V95H154.465ZM154.465 86.18V84.78H155.417V86.18H154.465ZM160.678 95.14C160.146 95.14 159.656 95.042 159.208 94.846C158.769 94.6407 158.382 94.3607 158.046 94.006C157.719 93.6513 157.463 93.2453 157.276 92.788C157.099 92.3307 157.01 91.8453 157.01 91.332C157.01 90.6413 157.164 90.0113 157.472 89.442C157.78 88.8727 158.209 88.42 158.76 88.084C159.311 87.748 159.945 87.58 160.664 87.58C161.345 87.58 161.947 87.7387 162.47 88.056C162.993 88.364 163.38 88.784 163.632 89.316L162.708 89.61C162.503 89.2367 162.213 88.9473 161.84 88.742C161.476 88.5273 161.07 88.42 160.622 88.42C160.137 88.42 159.693 88.546 159.292 88.798C158.891 89.05 158.569 89.3953 158.326 89.834C158.093 90.2727 157.976 90.772 157.976 91.332C157.976 91.8827 158.097 92.382 158.34 92.83C158.583 93.278 158.905 93.6373 159.306 93.908C159.707 94.1693 160.151 94.3 160.636 94.3C160.953 94.3 161.257 94.244 161.546 94.132C161.845 94.02 162.101 93.8707 162.316 93.684C162.54 93.488 162.689 93.278 162.764 93.054L163.702 93.334C163.571 93.6793 163.352 93.992 163.044 94.272C162.745 94.5427 162.391 94.7573 161.98 94.916C161.579 95.0653 161.145 95.14 160.678 95.14ZM165.197 95V87.706H166.149V95H165.197ZM165.197 86.18V84.78H166.149V86.18H165.197ZM171.354 95.14C170.832 95.14 170.346 95.042 169.898 94.846C169.46 94.6407 169.077 94.3653 168.75 94.02C168.433 93.6653 168.186 93.264 168.008 92.816C167.831 92.3587 167.742 91.878 167.742 91.374C167.742 90.8513 167.831 90.366 168.008 89.918C168.186 89.4607 168.438 89.0593 168.764 88.714C169.091 88.3593 169.474 88.084 169.912 87.888C170.36 87.6827 170.846 87.58 171.368 87.58C171.891 87.58 172.372 87.6827 172.81 87.888C173.249 88.084 173.632 88.3593 173.958 88.714C174.285 89.0593 174.537 89.4607 174.714 89.918C174.892 90.366 174.98 90.8513 174.98 91.374C174.98 91.878 174.892 92.3587 174.714 92.816C174.537 93.264 174.285 93.6653 173.958 94.02C173.641 94.3653 173.258 94.6407 172.81 94.846C172.372 95.042 171.886 95.14 171.354 95.14ZM168.708 91.388C168.708 91.9293 168.825 92.424 169.058 92.872C169.301 93.3107 169.623 93.6607 170.024 93.922C170.426 94.174 170.869 94.3 171.354 94.3C171.84 94.3 172.283 94.1693 172.684 93.908C173.086 93.6467 173.408 93.292 173.65 92.844C173.893 92.3867 174.014 91.892 174.014 91.36C174.014 90.8187 173.893 90.324 173.65 89.876C173.408 89.428 173.086 89.0733 172.684 88.812C172.283 88.5507 171.84 88.42 171.354 88.42C170.869 88.42 170.426 88.5553 170.024 88.826C169.632 89.0967 169.315 89.456 169.072 89.904C168.83 90.3427 168.708 90.8373 168.708 91.388ZM182.704 95H181.752V90.926C181.752 90.0673 181.626 89.442 181.374 89.05C181.122 88.6487 180.726 88.448 180.184 88.448C179.811 88.448 179.442 88.5413 179.078 88.728C178.714 88.9053 178.392 89.1527 178.112 89.47C177.842 89.778 177.646 90.1327 177.524 90.534V95H176.572V87.706H177.44V89.358C177.636 89.0033 177.893 88.6953 178.21 88.434C178.528 88.1633 178.887 87.9533 179.288 87.804C179.69 87.6547 180.105 87.58 180.534 87.58C180.936 87.58 181.276 87.6547 181.556 87.804C181.836 87.9533 182.06 88.168 182.228 88.448C182.396 88.7187 182.518 89.05 182.592 89.442C182.667 89.8247 182.704 90.254 182.704 90.73V95ZM184.147 92.9C184.147 92.4427 184.277 92.0507 184.539 91.724C184.8 91.388 185.159 91.1313 185.617 90.954C186.083 90.7673 186.62 90.674 187.227 90.674C187.581 90.674 187.95 90.702 188.333 90.758C188.715 90.814 189.056 90.898 189.355 91.01V90.394C189.355 89.778 189.173 89.288 188.809 88.924C188.445 88.56 187.941 88.378 187.297 88.378C186.905 88.378 186.517 88.4527 186.135 88.602C185.761 88.742 185.369 88.952 184.959 89.232L184.595 88.56C185.071 88.2333 185.537 87.9907 185.995 87.832C186.452 87.664 186.919 87.58 187.395 87.58C188.291 87.58 189 87.8367 189.523 88.35C190.045 88.8633 190.307 89.5727 190.307 90.478V93.852C190.307 93.9827 190.335 94.0807 190.391 94.146C190.447 94.202 190.535 94.2347 190.657 94.244V95C190.554 95.0093 190.465 95.0187 190.391 95.028C190.316 95.0373 190.26 95.0373 190.223 95.028C189.989 95.0187 189.812 94.944 189.691 94.804C189.569 94.664 189.504 94.5147 189.495 94.356L189.481 93.824C189.154 94.244 188.729 94.5707 188.207 94.804C187.684 95.028 187.152 95.14 186.611 95.14C186.144 95.14 185.719 95.042 185.337 94.846C184.963 94.6407 184.669 94.37 184.455 94.034C184.249 93.6887 184.147 93.3107 184.147 92.9ZM189.033 93.46C189.135 93.3293 189.215 93.2033 189.271 93.082C189.327 92.9607 189.355 92.8533 189.355 92.76V91.696C189.037 91.5747 188.706 91.4813 188.361 91.416C188.025 91.3507 187.684 91.318 187.339 91.318C186.657 91.318 186.107 91.4533 185.687 91.724C185.267 91.9947 185.057 92.3633 185.057 92.83C185.057 93.1007 185.127 93.3573 185.267 93.6C185.407 93.8333 185.612 94.0293 185.883 94.188C186.153 94.3373 186.471 94.412 186.835 94.412C187.292 94.412 187.717 94.3233 188.109 94.146C188.51 93.9687 188.818 93.74 189.033 93.46ZM196.003 88.546C195.369 88.5647 194.809 88.742 194.323 89.078C193.847 89.414 193.511 89.876 193.315 90.464V95H192.363V87.706H193.259V89.456C193.511 88.9427 193.843 88.5273 194.253 88.21C194.673 87.8927 195.117 87.7153 195.583 87.678C195.677 87.6687 195.756 87.664 195.821 87.664C195.896 87.664 195.957 87.6687 196.003 87.678V88.546ZM200.442 91.99V87.706H201.394V91.822C201.394 92.6527 201.534 93.2733 201.814 93.684C202.103 94.0947 202.528 94.3 203.088 94.3C203.461 94.3 203.821 94.2207 204.166 94.062C204.521 93.894 204.833 93.6607 205.104 93.362C205.375 93.054 205.58 92.6993 205.72 92.298V87.706H206.672V93.852C206.672 93.9827 206.7 94.0807 206.756 94.146C206.812 94.202 206.896 94.2347 207.008 94.244V95C206.896 95.0093 206.807 95.014 206.742 95.014C206.677 95.0233 206.616 95.028 206.56 95.028C206.373 95.0093 206.21 94.9347 206.07 94.804C205.939 94.6733 205.869 94.5147 205.86 94.328L205.832 93.348C205.515 93.908 205.081 94.3467 204.53 94.664C203.989 94.9813 203.401 95.14 202.766 95.14C202.001 95.14 201.422 94.874 201.03 94.342C200.638 93.81 200.442 93.026 200.442 91.99ZM219.674 95H218.722V90.926C218.722 90.0767 218.587 89.4513 218.316 89.05C218.046 88.6487 217.644 88.448 217.112 88.448C216.562 88.448 216.067 88.644 215.628 89.036C215.199 89.428 214.896 89.932 214.718 90.548V95H213.766V90.926C213.766 90.0673 213.636 89.442 213.374 89.05C213.113 88.6487 212.712 88.448 212.17 88.448C211.629 88.448 211.139 88.6393 210.7 89.022C210.262 89.4047 209.954 89.9087 209.776 90.534V95H208.824V87.706H209.692V89.358C210 88.7887 210.392 88.35 210.868 88.042C211.354 87.734 211.89 87.58 212.478 87.58C213.085 87.58 213.575 87.7527 213.948 88.098C214.322 88.4433 214.55 88.896 214.634 89.456C214.97 88.84 215.372 88.3733 215.838 88.056C216.314 87.7387 216.851 87.58 217.448 87.58C217.859 87.58 218.204 87.6547 218.484 87.804C218.774 87.9533 219.002 88.168 219.17 88.448C219.348 88.7187 219.474 89.05 219.548 89.442C219.632 89.8247 219.674 90.254 219.674 90.73V95ZM221.102 92.9C221.102 92.4427 221.232 92.0507 221.494 91.724C221.755 91.388 222.114 91.1313 222.572 90.954C223.038 90.7673 223.575 90.674 224.182 90.674C224.536 90.674 224.905 90.702 225.288 90.758C225.67 90.814 226.011 90.898 226.31 91.01V90.394C226.31 89.778 226.128 89.288 225.764 88.924C225.4 88.56 224.896 88.378 224.252 88.378C223.86 88.378 223.472 88.4527 223.09 88.602C222.716 88.742 222.324 88.952 221.914 89.232L221.55 88.56C222.026 88.2333 222.492 87.9907 222.95 87.832C223.407 87.664 223.874 87.58 224.35 87.58C225.246 87.58 225.955 87.8367 226.478 88.35C227 88.8633 227.262 89.5727 227.262 90.478V93.852C227.262 93.9827 227.29 94.0807 227.346 94.146C227.402 94.202 227.49 94.2347 227.612 94.244V95C227.509 95.0093 227.42 95.0187 227.346 95.028C227.271 95.0373 227.215 95.0373 227.178 95.028C226.944 95.0187 226.767 94.944 226.646 94.804C226.524 94.664 226.459 94.5147 226.45 94.356L226.436 93.824C226.109 94.244 225.684 94.5707 225.162 94.804C224.639 95.028 224.107 95.14 223.566 95.14C223.099 95.14 222.674 95.042 222.292 94.846C221.918 94.6407 221.624 94.37 221.41 94.034C221.204 93.6887 221.102 93.3107 221.102 92.9ZM225.988 93.46C226.09 93.3293 226.17 93.2033 226.226 93.082C226.282 92.9607 226.31 92.8533 226.31 92.76V91.696C225.992 91.5747 225.661 91.4813 225.316 91.416C224.98 91.3507 224.639 91.318 224.294 91.318C223.612 91.318 223.062 91.4533 222.642 91.724C222.222 91.9947 222.012 92.3633 222.012 92.83C222.012 93.1007 222.082 93.3573 222.222 93.6C222.362 93.8333 222.567 94.0293 222.838 94.188C223.108 94.3373 223.426 94.412 223.79 94.412C224.247 94.412 224.672 94.3233 225.064 94.146C225.465 93.9687 225.773 93.74 225.988 93.46ZM66.2268 115V107.706H67.1788V115H66.2268ZM66.2268 106.18V104.78H67.1788V106.18H66.2268ZM80.1256 115H79.1736V110.926C79.1736 110.077 79.0383 109.451 78.7676 109.05C78.4969 108.649 78.0956 108.448 77.5636 108.448C77.0129 108.448 76.5183 108.644 76.0796 109.036C75.6503 109.428 75.3469 109.932 75.1696 110.548V115H74.2176V110.926C74.2176 110.067 74.0869 109.442 73.8256 109.05C73.5643 108.649 73.1629 108.448 72.6216 108.448C72.0803 108.448 71.5903 108.639 71.1516 109.022C70.7129 109.405 70.4049 109.909 70.2276 110.534V115H69.2756V107.706H70.1436V109.358C70.4516 108.789 70.8436 108.35 71.3196 108.042C71.8049 107.734 72.3416 107.58 72.9296 107.58C73.5363 107.58 74.0263 107.753 74.3996 108.098C74.7729 108.443 75.0016 108.896 75.0856 109.456C75.4216 108.84 75.8229 108.373 76.2896 108.056C76.7656 107.739 77.3023 107.58 77.8996 107.58C78.3103 107.58 78.6556 107.655 78.9356 107.804C79.2249 107.953 79.4536 108.168 79.6216 108.448C79.7989 108.719 79.9249 109.05 79.9996 109.442C80.0836 109.825 80.1256 110.254 80.1256 110.73V115ZM81.5528 112.9C81.5528 112.443 81.6835 112.051 81.9448 111.724C82.2062 111.388 82.5655 111.131 83.0228 110.954C83.4895 110.767 84.0262 110.674 84.6328 110.674C84.9875 110.674 85.3562 110.702 85.7388 110.758C86.1215 110.814 86.4622 110.898 86.7608 111.01V110.394C86.7608 109.778 86.5788 109.288 86.2148 108.924C85.8508 108.56 85.3468 108.378 84.7028 108.378C84.3108 108.378 83.9235 108.453 83.5408 108.602C83.1675 108.742 82.7755 108.952 82.3648 109.232L82.0008 108.56C82.4768 108.233 82.9435 107.991 83.4008 107.832C83.8582 107.664 84.3248 107.58 84.8008 107.58C85.6968 107.58 86.4062 107.837 86.9288 108.35C87.4515 108.863 87.7128 109.573 87.7128 110.478V113.852C87.7128 113.983 87.7408 114.081 87.7968 114.146C87.8528 114.202 87.9415 114.235 88.0628 114.244V115C87.9602 115.009 87.8715 115.019 87.7968 115.028C87.7222 115.037 87.6662 115.037 87.6288 115.028C87.3955 115.019 87.2182 114.944 87.0968 114.804C86.9755 114.664 86.9102 114.515 86.9008 114.356L86.8868 113.824C86.5602 114.244 86.1355 114.571 85.6128 114.804C85.0902 115.028 84.5582 115.14 84.0168 115.14C83.5502 115.14 83.1255 115.042 82.7428 114.846C82.3695 114.641 82.0755 114.37 81.8608 114.034C81.6555 113.689 81.5528 113.311 81.5528 112.9ZM86.4388 113.46C86.5415 113.329 86.6208 113.203 86.6768 113.082C86.7328 112.961 86.7608 112.853 86.7608 112.76V111.696C86.4435 111.575 86.1122 111.481 85.7668 111.416C85.4308 111.351 85.0902 111.318 84.7448 111.318C84.0635 111.318 83.5128 111.453 83.0928 111.724C82.6728 111.995 82.4628 112.363 82.4628 112.83C82.4628 113.101 82.5328 113.357 82.6728 113.6C82.8128 113.833 83.0182 114.029 83.2888 114.188C83.5595 114.337 83.8768 114.412 84.2408 114.412C84.6982 114.412 85.1228 114.323 85.5148 114.146C85.9162 113.969 86.2242 113.74 86.4388 113.46ZM92.6957 115.098C92.2011 115.098 91.7437 114.995 91.3237 114.79C90.9037 114.585 90.5397 114.309 90.2317 113.964C89.9331 113.609 89.6997 113.208 89.5317 112.76C89.3637 112.312 89.2797 111.85 89.2797 111.374C89.2797 110.861 89.3591 110.38 89.5177 109.932C89.6857 109.475 89.9191 109.069 90.2177 108.714C90.5257 108.359 90.8851 108.084 91.2957 107.888C91.7064 107.683 92.1637 107.58 92.6677 107.58C93.2931 107.58 93.8344 107.739 94.2917 108.056C94.7584 108.373 95.1504 108.765 95.4677 109.232V107.706H96.3217V115.028C96.3217 115.7 96.1584 116.265 95.8317 116.722C95.5144 117.189 95.0804 117.539 94.5297 117.772C93.9884 118.005 93.3957 118.122 92.7517 118.122C91.9211 118.122 91.2491 117.973 90.7357 117.674C90.2224 117.375 89.8024 116.974 89.4757 116.47L90.0637 116.008C90.3531 116.465 90.7357 116.806 91.2117 117.03C91.6971 117.254 92.2104 117.366 92.7517 117.366C93.2277 117.366 93.6617 117.277 94.0537 117.1C94.4551 116.932 94.7724 116.675 95.0057 116.33C95.2484 115.985 95.3697 115.551 95.3697 115.028V113.586C95.0897 114.043 94.7071 114.412 94.2217 114.692C93.7364 114.963 93.2277 115.098 92.6957 115.098ZM92.9617 114.3C93.2511 114.3 93.5264 114.249 93.7877 114.146C94.0584 114.043 94.3057 113.908 94.5297 113.74C94.7537 113.563 94.9404 113.367 95.0897 113.152C95.2391 112.937 95.3324 112.718 95.3697 112.494V110.24C95.2297 109.885 95.0291 109.573 94.7677 109.302C94.5064 109.022 94.2077 108.807 93.8717 108.658C93.5451 108.499 93.2044 108.42 92.8497 108.42C92.4391 108.42 92.0704 108.509 91.7437 108.686C91.4264 108.854 91.1557 109.083 90.9317 109.372C90.7171 109.652 90.5491 109.969 90.4277 110.324C90.3064 110.679 90.2457 111.033 90.2457 111.388C90.2457 111.78 90.3157 112.153 90.4557 112.508C90.5957 112.853 90.7871 113.166 91.0297 113.446C91.2817 113.717 91.5711 113.927 91.8977 114.076C92.2337 114.225 92.5884 114.3 92.9617 114.3ZM101.574 115.14C101.051 115.14 100.566 115.042 100.118 114.846C99.67 114.641 99.2827 114.365 98.956 114.02C98.6294 113.665 98.3727 113.259 98.186 112.802C98.0087 112.345 97.92 111.855 97.92 111.332C97.92 110.651 98.074 110.025 98.382 109.456C98.6994 108.887 99.1334 108.434 99.684 108.098C100.235 107.753 100.86 107.58 101.56 107.58C102.279 107.58 102.904 107.753 103.436 108.098C103.977 108.443 104.402 108.901 104.71 109.47C105.018 110.03 105.172 110.646 105.172 111.318C105.172 111.393 105.172 111.467 105.172 111.542C105.172 111.607 105.167 111.659 105.158 111.696H98.914C98.9607 112.219 99.1054 112.685 99.348 113.096C99.6 113.497 99.922 113.819 100.314 114.062C100.715 114.295 101.149 114.412 101.616 114.412C102.092 114.412 102.54 114.291 102.96 114.048C103.389 113.805 103.688 113.488 103.856 113.096L104.682 113.32C104.533 113.665 104.304 113.978 103.996 114.258C103.688 114.538 103.324 114.757 102.904 114.916C102.493 115.065 102.05 115.14 101.574 115.14ZM98.886 111.01H104.276C104.239 110.478 104.094 110.011 103.842 109.61C103.599 109.209 103.277 108.896 102.876 108.672C102.484 108.439 102.05 108.322 101.574 108.322C101.098 108.322 100.664 108.439 100.272 108.672C99.88 108.896 99.558 109.213 99.306 109.624C99.0634 110.025 98.9234 110.487 98.886 111.01ZM117.491 115H116.539V110.926C116.539 110.077 116.403 109.451 116.133 109.05C115.862 108.649 115.461 108.448 114.929 108.448C114.378 108.448 113.883 108.644 113.445 109.036C113.015 109.428 112.712 109.932 112.535 110.548V115H111.583V110.926C111.583 110.067 111.452 109.442 111.191 109.05C110.929 108.649 110.528 108.448 109.987 108.448C109.445 108.448 108.955 108.639 108.517 109.022C108.078 109.405 107.77 109.909 107.593 110.534V115H106.641V107.706H107.509V109.358C107.817 108.789 108.209 108.35 108.685 108.042C109.17 107.734 109.707 107.58 110.295 107.58C110.901 107.58 111.391 107.753 111.765 108.098C112.138 108.443 112.367 108.896 112.451 109.456C112.787 108.84 113.188 108.373 113.655 108.056C114.131 107.739 114.667 107.58 115.265 107.58C115.675 107.58 116.021 107.655 116.301 107.804C116.59 107.953 116.819 108.168 116.987 108.448C117.164 108.719 117.29 109.05 117.365 109.442C117.449 109.825 117.491 110.254 117.491 110.73V115ZM126.798 115.14C126.192 115.14 125.646 114.981 125.16 114.664C124.684 114.347 124.306 113.955 124.026 113.488V117.982H123.074V107.706H123.928V109.12C124.218 108.663 124.605 108.294 125.09 108.014C125.576 107.725 126.094 107.58 126.644 107.58C127.148 107.58 127.61 107.687 128.03 107.902C128.45 108.107 128.814 108.387 129.122 108.742C129.43 109.097 129.668 109.503 129.836 109.96C130.014 110.408 130.102 110.875 130.102 111.36C130.102 112.041 129.962 112.671 129.682 113.25C129.412 113.819 129.029 114.277 128.534 114.622C128.04 114.967 127.461 115.14 126.798 115.14ZM126.532 114.3C126.934 114.3 127.293 114.221 127.61 114.062C127.928 113.894 128.198 113.67 128.422 113.39C128.656 113.11 128.833 112.797 128.954 112.452C129.076 112.097 129.136 111.733 129.136 111.36C129.136 110.968 129.066 110.595 128.926 110.24C128.796 109.885 128.604 109.573 128.352 109.302C128.1 109.031 127.811 108.817 127.484 108.658C127.158 108.499 126.803 108.42 126.42 108.42C126.178 108.42 125.926 108.467 125.664 108.56C125.403 108.653 125.151 108.789 124.908 108.966C124.675 109.134 124.479 109.325 124.32 109.54C124.162 109.755 124.064 109.983 124.026 110.226V112.466C124.176 112.811 124.376 113.124 124.628 113.404C124.88 113.675 125.17 113.894 125.496 114.062C125.832 114.221 126.178 114.3 126.532 114.3ZM131.127 112.9C131.127 112.443 131.258 112.051 131.519 111.724C131.78 111.388 132.14 111.131 132.597 110.954C133.064 110.767 133.6 110.674 134.207 110.674C134.562 110.674 134.93 110.702 135.313 110.758C135.696 110.814 136.036 110.898 136.335 111.01V110.394C136.335 109.778 136.153 109.288 135.789 108.924C135.425 108.56 134.921 108.378 134.277 108.378C133.885 108.378 133.498 108.453 133.115 108.602C132.742 108.742 132.35 108.952 131.939 109.232L131.575 108.56C132.051 108.233 132.518 107.991 132.975 107.832C133.432 107.664 133.899 107.58 134.375 107.58C135.271 107.58 135.98 107.837 136.503 108.35C137.026 108.863 137.287 109.573 137.287 110.478V113.852C137.287 113.983 137.315 114.081 137.371 114.146C137.427 114.202 137.516 114.235 137.637 114.244V115C137.534 115.009 137.446 115.019 137.371 115.028C137.296 115.037 137.24 115.037 137.203 115.028C136.97 115.019 136.792 114.944 136.671 114.804C136.55 114.664 136.484 114.515 136.475 114.356L136.461 113.824C136.134 114.244 135.71 114.571 135.187 114.804C134.664 115.028 134.132 115.14 133.591 115.14C133.124 115.14 132.7 115.042 132.317 114.846C131.944 114.641 131.65 114.37 131.435 114.034C131.23 113.689 131.127 113.311 131.127 112.9ZM136.013 113.46C136.116 113.329 136.195 113.203 136.251 113.082C136.307 112.961 136.335 112.853 136.335 112.76V111.696C136.018 111.575 135.686 111.481 135.341 111.416C135.005 111.351 134.664 111.318 134.319 111.318C133.638 111.318 133.087 111.453 132.667 111.724C132.247 111.995 132.037 112.363 132.037 112.83C132.037 113.101 132.107 113.357 132.247 113.6C132.387 113.833 132.592 114.029 132.863 114.188C133.134 114.337 133.451 114.412 133.815 114.412C134.272 114.412 134.697 114.323 135.089 114.146C135.49 113.969 135.798 113.74 136.013 113.46ZM142.984 108.546C142.349 108.565 141.789 108.742 141.304 109.078C140.828 109.414 140.492 109.876 140.296 110.464V115H139.344V107.706H140.24V109.456C140.492 108.943 140.823 108.527 141.234 108.21C141.654 107.893 142.097 107.715 142.564 107.678C142.657 107.669 142.737 107.664 142.802 107.664C142.877 107.664 142.937 107.669 142.984 107.678V108.546ZM143.637 112.9C143.637 112.443 143.767 112.051 144.029 111.724C144.29 111.388 144.649 111.131 145.107 110.954C145.573 110.767 146.11 110.674 146.717 110.674C147.071 110.674 147.44 110.702 147.823 110.758C148.205 110.814 148.546 110.898 148.845 111.01V110.394C148.845 109.778 148.663 109.288 148.299 108.924C147.935 108.56 147.431 108.378 146.787 108.378C146.395 108.378 146.007 108.453 145.625 108.602C145.251 108.742 144.859 108.952 144.449 109.232L144.085 108.56C144.561 108.233 145.027 107.991 145.485 107.832C145.942 107.664 146.409 107.58 146.885 107.58C147.781 107.58 148.49 107.837 149.013 108.35C149.535 108.863 149.797 109.573 149.797 110.478V113.852C149.797 113.983 149.825 114.081 149.881 114.146C149.937 114.202 150.025 114.235 150.147 114.244V115C150.044 115.009 149.955 115.019 149.881 115.028C149.806 115.037 149.75 115.037 149.713 115.028C149.479 115.019 149.302 114.944 149.181 114.804C149.059 114.664 148.994 114.515 148.985 114.356L148.971 113.824C148.644 114.244 148.219 114.571 147.697 114.804C147.174 115.028 146.642 115.14 146.101 115.14C145.634 115.14 145.209 115.042 144.827 114.846C144.453 114.641 144.159 114.37 143.945 114.034C143.739 113.689 143.637 113.311 143.637 112.9ZM148.523 113.46C148.625 113.329 148.705 113.203 148.761 113.082C148.817 112.961 148.845 112.853 148.845 112.76V111.696C148.527 111.575 148.196 111.481 147.851 111.416C147.515 111.351 147.174 111.318 146.829 111.318C146.147 111.318 145.597 111.453 145.177 111.724C144.757 111.995 144.547 112.363 144.547 112.83C144.547 113.101 144.617 113.357 144.757 113.6C144.897 113.833 145.102 114.029 145.373 114.188C145.643 114.337 145.961 114.412 146.325 114.412C146.782 114.412 147.207 114.323 147.599 114.146C148 113.969 148.308 113.74 148.523 113.46ZM158.53 115.14C158.007 115.14 157.522 115.042 157.074 114.846C156.635 114.641 156.253 114.365 155.926 114.02C155.609 113.665 155.361 113.264 155.184 112.816C155.007 112.359 154.918 111.878 154.918 111.374C154.918 110.851 155.007 110.366 155.184 109.918C155.361 109.461 155.613 109.059 155.94 108.714C156.267 108.359 156.649 108.084 157.088 107.888C157.536 107.683 158.021 107.58 158.544 107.58C159.067 107.58 159.547 107.683 159.986 107.888C160.425 108.084 160.807 108.359 161.134 108.714C161.461 109.059 161.713 109.461 161.89 109.918C162.067 110.366 162.156 110.851 162.156 111.374C162.156 111.878 162.067 112.359 161.89 112.816C161.713 113.264 161.461 113.665 161.134 114.02C160.817 114.365 160.434 114.641 159.986 114.846C159.547 115.042 159.062 115.14 158.53 115.14ZM155.884 111.388C155.884 111.929 156.001 112.424 156.234 112.872C156.477 113.311 156.799 113.661 157.2 113.922C157.601 114.174 158.045 114.3 158.53 114.3C159.015 114.3 159.459 114.169 159.86 113.908C160.261 113.647 160.583 113.292 160.826 112.844C161.069 112.387 161.19 111.892 161.19 111.36C161.19 110.819 161.069 110.324 160.826 109.876C160.583 109.428 160.261 109.073 159.86 108.812C159.459 108.551 159.015 108.42 158.53 108.42C158.045 108.42 157.601 108.555 157.2 108.826C156.808 109.097 156.491 109.456 156.248 109.904C156.005 110.343 155.884 110.837 155.884 111.388ZM171.041 115.14C170.434 115.14 169.888 114.981 169.403 114.664C168.927 114.347 168.549 113.955 168.269 113.488V117.982H167.317V107.706H168.171V109.12C168.46 108.663 168.847 108.294 169.333 108.014C169.818 107.725 170.336 107.58 170.887 107.58C171.391 107.58 171.853 107.687 172.273 107.902C172.693 108.107 173.057 108.387 173.365 108.742C173.673 109.097 173.911 109.503 174.079 109.96C174.256 110.408 174.345 110.875 174.345 111.36C174.345 112.041 174.205 112.671 173.925 113.25C173.654 113.819 173.271 114.277 172.777 114.622C172.282 114.967 171.703 115.14 171.041 115.14ZM170.775 114.3C171.176 114.3 171.535 114.221 171.853 114.062C172.17 113.894 172.441 113.67 172.665 113.39C172.898 113.11 173.075 112.797 173.197 112.452C173.318 112.097 173.379 111.733 173.379 111.36C173.379 110.968 173.309 110.595 173.169 110.24C173.038 109.885 172.847 109.573 172.595 109.302C172.343 109.031 172.053 108.817 171.727 108.658C171.4 108.499 171.045 108.42 170.663 108.42C170.42 108.42 170.168 108.467 169.907 108.56C169.645 108.653 169.393 108.789 169.151 108.966C168.917 109.134 168.721 109.325 168.563 109.54C168.404 109.755 168.306 109.983 168.269 110.226V112.466C168.418 112.811 168.619 113.124 168.871 113.404C169.123 113.675 169.412 113.894 169.739 114.062C170.075 114.221 170.42 114.3 170.775 114.3ZM179.597 108.546C178.963 108.565 178.403 108.742 177.917 109.078C177.441 109.414 177.105 109.876 176.909 110.464V115H175.957V107.706H176.853V109.456C177.105 108.943 177.437 108.527 177.847 108.21C178.267 107.893 178.711 107.715 179.177 107.678C179.271 107.669 179.35 107.664 179.415 107.664C179.49 107.664 179.551 107.669 179.597 107.678V108.546ZM183.741 115.14C183.218 115.14 182.733 115.042 182.285 114.846C181.846 114.641 181.464 114.365 181.137 114.02C180.82 113.665 180.572 113.264 180.395 112.816C180.218 112.359 180.129 111.878 180.129 111.374C180.129 110.851 180.218 110.366 180.395 109.918C180.572 109.461 180.824 109.059 181.151 108.714C181.478 108.359 181.86 108.084 182.299 107.888C182.747 107.683 183.232 107.58 183.755 107.58C184.278 107.58 184.758 107.683 185.197 107.888C185.636 108.084 186.018 108.359 186.345 108.714C186.672 109.059 186.924 109.461 187.101 109.918C187.278 110.366 187.367 110.851 187.367 111.374C187.367 111.878 187.278 112.359 187.101 112.816C186.924 113.264 186.672 113.665 186.345 114.02C186.028 114.365 185.645 114.641 185.197 114.846C184.758 115.042 184.273 115.14 183.741 115.14ZM181.095 111.388C181.095 111.929 181.212 112.424 181.445 112.872C181.688 113.311 182.01 113.661 182.411 113.922C182.812 114.174 183.256 114.3 183.741 114.3C184.226 114.3 184.67 114.169 185.071 113.908C185.472 113.647 185.794 113.292 186.037 112.844C186.28 112.387 186.401 111.892 186.401 111.36C186.401 110.819 186.28 110.324 186.037 109.876C185.794 109.428 185.472 109.073 185.071 108.812C184.67 108.551 184.226 108.42 183.741 108.42C183.256 108.42 182.812 108.555 182.411 108.826C182.019 109.097 181.702 109.456 181.459 109.904C181.216 110.343 181.095 110.837 181.095 111.388ZM188.469 111.374C188.469 110.683 188.609 110.053 188.889 109.484C189.179 108.905 189.575 108.443 190.079 108.098C190.583 107.753 191.157 107.58 191.801 107.58C192.408 107.58 192.949 107.743 193.425 108.07C193.911 108.387 194.289 108.775 194.559 109.232V104.78H195.511V113.852C195.511 113.983 195.539 114.081 195.595 114.146C195.651 114.202 195.735 114.235 195.847 114.244V115C195.661 115.028 195.516 115.037 195.413 115.028C195.217 115.019 195.045 114.939 194.895 114.79C194.746 114.641 194.671 114.477 194.671 114.3V113.586C194.382 114.062 193.99 114.44 193.495 114.72C193.001 115 192.487 115.14 191.955 115.14C191.451 115.14 190.985 115.037 190.555 114.832C190.135 114.627 189.767 114.347 189.449 113.992C189.141 113.637 188.899 113.236 188.721 112.788C188.553 112.331 188.469 111.859 188.469 111.374ZM194.559 112.494V110.24C194.438 109.904 194.242 109.601 193.971 109.33C193.701 109.05 193.393 108.831 193.047 108.672C192.711 108.504 192.375 108.42 192.039 108.42C191.647 108.42 191.293 108.504 190.975 108.672C190.658 108.831 190.383 109.05 190.149 109.33C189.925 109.61 189.753 109.927 189.631 110.282C189.51 110.637 189.449 111.001 189.449 111.374C189.449 111.766 189.515 112.139 189.645 112.494C189.785 112.849 189.981 113.166 190.233 113.446C190.485 113.717 190.775 113.927 191.101 114.076C191.428 114.225 191.783 114.3 192.165 114.3C192.408 114.3 192.66 114.253 192.921 114.16C193.183 114.067 193.43 113.941 193.663 113.782C193.906 113.614 194.107 113.418 194.265 113.194C194.424 112.97 194.522 112.737 194.559 112.494ZM197.598 111.99V107.706H198.55V111.822C198.55 112.653 198.69 113.273 198.97 113.684C199.259 114.095 199.684 114.3 200.244 114.3C200.617 114.3 200.977 114.221 201.322 114.062C201.677 113.894 201.989 113.661 202.26 113.362C202.531 113.054 202.736 112.699 202.876 112.298V107.706H203.828V113.852C203.828 113.983 203.856 114.081 203.912 114.146C203.968 114.202 204.052 114.235 204.164 114.244V115C204.052 115.009 203.963 115.014 203.898 115.014C203.833 115.023 203.772 115.028 203.716 115.028C203.529 115.009 203.366 114.935 203.226 114.804C203.095 114.673 203.025 114.515 203.016 114.328L202.988 113.348C202.671 113.908 202.237 114.347 201.686 114.664C201.145 114.981 200.557 115.14 199.922 115.14C199.157 115.14 198.578 114.874 198.186 114.342C197.794 113.81 197.598 113.026 197.598 111.99ZM209.481 114.65C209.406 114.678 209.289 114.729 209.131 114.804C208.972 114.879 208.781 114.944 208.557 115C208.333 115.056 208.09 115.084 207.829 115.084C207.558 115.084 207.301 115.033 207.059 114.93C206.825 114.827 206.639 114.673 206.499 114.468C206.359 114.253 206.289 113.992 206.289 113.684V108.462H205.281V107.706H206.289V105.242H207.241V107.706H208.921V108.462H207.241V113.418C207.259 113.679 207.353 113.875 207.521 114.006C207.698 114.137 207.899 114.202 208.123 114.202C208.384 114.202 208.622 114.16 208.837 114.076C209.051 113.983 209.182 113.917 209.229 113.88L209.481 114.65ZM213.655 115.14C213.132 115.14 212.647 115.042 212.199 114.846C211.76 114.641 211.378 114.365 211.051 114.02C210.734 113.665 210.486 113.264 210.309 112.816C210.132 112.359 210.043 111.878 210.043 111.374C210.043 110.851 210.132 110.366 210.309 109.918C210.486 109.461 210.738 109.059 211.065 108.714C211.392 108.359 211.774 108.084 212.213 107.888C212.661 107.683 213.146 107.58 213.669 107.58C214.192 107.58 214.672 107.683 215.111 107.888C215.55 108.084 215.932 108.359 216.259 108.714C216.586 109.059 216.838 109.461 217.015 109.918C217.192 110.366 217.281 110.851 217.281 111.374C217.281 111.878 217.192 112.359 217.015 112.816C216.838 113.264 216.586 113.665 216.259 114.02C215.942 114.365 215.559 114.641 215.111 114.846C214.672 115.042 214.187 115.14 213.655 115.14ZM211.009 111.388C211.009 111.929 211.126 112.424 211.359 112.872C211.602 113.311 211.924 113.661 212.325 113.922C212.726 114.174 213.17 114.3 213.655 114.3C214.14 114.3 214.584 114.169 214.985 113.908C215.386 113.647 215.708 113.292 215.951 112.844C216.194 112.387 216.315 111.892 216.315 111.36C216.315 110.819 216.194 110.324 215.951 109.876C215.708 109.428 215.386 109.073 214.985 108.812C214.584 108.551 214.14 108.42 213.655 108.42C213.17 108.42 212.726 108.555 212.325 108.826C211.933 109.097 211.616 109.456 211.373 109.904C211.13 110.343 211.009 110.837 211.009 111.388Z" fill="#6B6B6B"/>
<rect x="1" y="0.5" width="281" height="151" stroke="#C8C8C8" stroke-dasharray="6 6"/>
</svg>
